<svg xmlns="http://www.w3.org/2000/svg" viewBox="0 0 32 32" fill="none">
  <rect width="32" height="32" rx="8" fill="#09090B"/>
  <path
    d="M10.5 8v16c0 1.1 0.6 2 1.5 2.2"
    stroke="#8B5CF6"
    stroke-width="1.4"
    stroke-linecap="round"
  />
  <path
    d="M10.5 8h8c2 0 3.5 1.5 3.5 3.5v11.5c0 2-1.5 3.5-3.5 3.5h-8V8Z"
    fill="#8B5CF6"
    fill-opacity="0.14"
    stroke="#8B5CF6"
    stroke-width="1.4"
    stroke-linejoin="round"
  />
  <path
    d="M18.5 8h1.8c2 0 3.5 1.5 3.5 3.5v11.5c0 2-1.5 3.5-3.5 3.5h-1.8"
    fill="#8B5CF6"
    fill-opacity="0.08"
    stroke="#8B5CF6"
    stroke-width="1.4"
    stroke-linejoin="round"
  />
  <path
    d="M13 13h6M13 16.5h7M13 20h5"
    stroke="#8B5CF6"
    stroke-width="1"
    stroke-linecap="round"
    opacity="0.75"
  />
  <circle
    cx="22"
    cy="22"
    r="2.2"
    fill="#10B981"
    fill-opacity="0.18"
    stroke="#10B981"
    stroke-width="1"
  />
  <path
    d="M21.1 22h1.8M22 21.1v1.8"
    stroke="#10B981"
    stroke-width="0.8"
    stroke-linecap="round"
  />
</svg>
